<svg version="1.1" xmlns="http://www.w3.org/2000/svg" xmlns:xlink="http://www.w3.org/1999/xlink" width="35.95839" height="43.8755" viewBox="0,0,35.95839,43.8755"><g transform="translate(-222.03318,-162.52619)"><g stroke-miterlimit="10"><path d="M224.10883,194.82733h31.78234l-16.09064,-29.65465z" fill="none" stroke="#ffe600" stroke-width="2.5" stroke-linecap="round"/><path d="M225.03523,193.96295h29.92955l-15.15262,-27.9259z" fill="none" stroke="#000000" stroke-width="2.5" stroke-linecap="round"/><path d="M228.78556,193.65363c-0.37486,0.01016 -0.64031,-0.09519 -0.82826,-0.24766c-0.15146,0.06519 -0.31839,0.1013 -0.49374,0.1013c-0.69036,0 -1.25,-0.55964 -1.25,-1.25c0,-0.69036 0.55964,-1.25 1.25,-1.25c0.0729,0 0.14433,0.00624 0.21381,0.01821c0.50099,-1.90234 1.91986,-3.12754 2.19371,-5.23052l1.13724,-1.405c0,0 0.3086,-0.27698 0.72985,-0.33414c0.40097,-0.64909 0.85445,-1.2507 1.40644,-1.75946c2.59136,-2.38843 6.36721,-2.92157 9.77671,-2.92426h1.25135c0.69036,0 1.25,0.55964 1.25,1.25c0,0.61236 -0.44033,1.12188 -1.02164,1.22919l-1.17163,0.24056c-3.09294,2.20967 -5.39685,3.98377 -5.09613,8.69707l0.25252,0.35422c4.56275,-0.07434 9.66144,-0.46988 13.98027,0.63915c0,0 1.20906,0.31731 0.89175,1.52636c-0.31731,1.20906 -1.52636,0.89175 -1.52636,0.89175c-5.32934,-1.43559 -11.68658,-0.32126 -17.19477,-0.62152c-0.67666,-0.03689 -3.41195,0.09259 -5.08709,-0.10498c-0.16627,0.1028 -0.3826,0.17209 -0.66403,0.17972z" fill="#000000" stroke="none" stroke-width="0.5" stroke-linecap="butt"/><text transform="translate(231.14483,203.68263) scale(0.21383,0.21383)" font-size="40" xml:space="preserve" fill="#000000" stroke="none" stroke-width="1" stroke-linecap="butt" font-family="Sans Serif" font-weight="normal" text-anchor="start"><tspan x="0" dy="0">津波</tspan></text></g></g></svg>